<?xml version="1.0" encoding="UTF-8"?>
<svg width="129px" height="23px" viewBox="0 0 129 23" version="1.1" xmlns="http://www.w3.org/2000/svg" xmlns:xlink="http://www.w3.org/1999/xlink">
    <!-- Generator: Sketch 55.2 (78181) - https://sketchapp.com -->
    <title>DAWGY</title>
    <desc>Created with Sketch.</desc>
    <g id="Welcome" stroke="none" stroke-width="1" fill="none" fill-rule="evenodd">
        <g id="Desktop-Copy" transform="translate(-61.000000, -53.000000)" fill="#0A853D" fill-rule="nonzero">
            <g id="Group" transform="translate(32.000000, 32.000000)">
                <path d="M48.83,32.16 C48.83,33.74 48.5575027,35.1974933 48.0125,36.5325 C47.4674973,37.8675067 46.7000049,39.0224951 45.71,39.9975 C44.719995,40.9725049 43.527507,41.7324973 42.1325,42.2775 C40.737493,42.8225027 39.1900085,43.095 37.49,43.095 L29,43.095 L29,21.24 L37.49,21.24 C39.1900085,21.24 40.737493,21.5149973 42.1325,22.065 C43.527507,22.6150028 44.719995,23.3749951 45.71,24.345 C46.7000049,25.3150049 47.4674973,26.4674933 48.0125,27.8025 C48.5575027,29.1375067 48.83,30.5899922 48.83,32.16 Z M43.64,32.16 C43.64,31.0799946 43.5000014,30.1050044 43.22,29.235 C42.9399986,28.3649956 42.5375026,27.627503 42.0125,27.0225 C41.4874974,26.417497 40.8450038,25.9525016 40.085,25.6275 C39.3249962,25.3024984 38.4600048,25.14 37.49,25.14 L34.1,25.14 L34.1,39.195 L37.49,39.195 C38.4600048,39.195 39.3249962,39.0325016 40.085,38.7075 C40.8450038,38.3824984 41.4874974,37.917503 42.0125,37.3125 C42.5375026,36.707497 42.9399986,35.9700043 43.22,35.1 C43.5000014,34.2299957 43.64,33.2500055 43.64,32.16 Z M75.3,43.095 L71.37,43.095 C70.9299978,43.095 70.5675014,42.992501 70.2825,42.7875 C69.9974986,42.582499 69.8000005,42.3200016 69.69,42 L68.4,38.19 L60.09,38.19 L58.8,42 C58.6999995,42.2800014 58.5050015,42.5324989 58.215,42.7575 C57.9249985,42.9825011 57.5700021,43.095 57.15,43.095 L53.19,43.095 L61.65,21.24 L66.84,21.24 L75.3,43.095 Z M61.26,34.74 L67.23,34.74 L65.22,28.755 C65.0899993,28.3749981 64.9375009,27.9275026 64.7625,27.4125 C64.5874991,26.8974974 64.4150009,26.340003 64.245,25.74 C64.0849992,26.350003 63.9200009,26.9149974 63.75,27.435 C63.5799991,27.9550026 63.4200007,28.4049981 63.27,28.785 L61.26,34.74 Z M77.2,21.24 L81.46,21.24 C81.9000022,21.24 82.2674985,21.339999 82.5625,21.54 C82.8575015,21.74 83.0499995,22.0049983 83.14,22.335 L86.14,33.735 C86.2400005,34.1050018 86.3399995,34.4999979 86.44,34.92 C86.5400005,35.3400021 86.6149997,35.7799977 86.665,36.24 C86.7650005,35.7699976 86.8749994,35.3275021 86.995,34.9125 C87.1150006,34.4974979 87.2299994,34.1050018 87.34,33.735 L90.88,22.335 C90.9700004,22.0549986 91.1624985,21.8025011 91.4575,21.5775 C91.7525015,21.3524989 92.1099979,21.24 92.53,21.24 L94.03,21.24 C94.4700022,21.24 94.8324986,21.337499 95.1175,21.5325 C95.4025014,21.727501 95.5999994,21.9949983 95.71,22.335 L99.22,33.735 C99.3300005,34.0850017 99.4449994,34.457498 99.565,34.8525 C99.6850006,35.247502 99.7899995,35.6699977 99.88,36.12 C99.9600004,35.6799978 100.0425,35.260002 100.1275,34.86 C100.2125,34.459998 100.3,34.0850017 100.39,33.735 L103.39,22.335 C103.47,22.0449985 103.659998,21.7900011 103.96,21.57 C104.260001,21.3499989 104.619998,21.24 105.04,21.24 L109.03,21.24 L102.28,43.095 L97.69,43.095 L93.58,29.55 C93.5099996,29.3399989 93.4375004,29.1100012 93.3625,28.86 C93.2874996,28.6099987 93.2150003,28.3450014 93.145,28.065 C93.0749996,28.3450014 93.0025004,28.6099987 92.9275,28.86 C92.8524996,29.1100012 92.7800003,29.3399989 92.71,29.55 L88.54,43.095 L83.95,43.095 L77.2,21.24 Z M123.75,39.435 C124.450004,39.435 125.069997,39.3750006 125.61,39.255 C126.150003,39.1349994 126.659998,38.975001 127.14,38.775 L127.14,35.46 L124.98,35.46 C124.659998,35.46 124.410001,35.3750008 124.23,35.205 C124.049999,35.0349991 123.96,34.8200013 123.96,34.56 L123.96,31.77 L131.73,31.77 L131.73,40.995 C131.169997,41.405002 130.587503,41.7574985 129.9825,42.0525 C129.377497,42.3475015 128.732503,42.589999 128.0475,42.78 C127.362497,42.9700009 126.632504,43.1099995 125.8575,43.2 C125.082496,43.2900004 124.250004,43.335 123.36,43.335 C121.759992,43.335 120.280007,43.0525028 118.92,42.4875 C117.559993,41.9224972 116.382505,41.142505 115.3875,40.1475 C114.392495,39.152495 113.612503,37.9725068 113.0475,36.6075 C112.482497,35.2424932 112.2,33.760008 112.2,32.16 C112.2,30.5299918 112.469997,29.0325068 113.01,27.6675 C113.550003,26.3024932 114.322495,25.1250049 115.3275,24.135 C116.332505,23.144995 117.547493,22.3750027 118.9725,21.825 C120.397507,21.2749972 121.989991,21 123.75,21 C124.660005,21 125.514996,21.0749992 126.315,21.225 C127.115004,21.3750007 127.852497,21.5799987 128.5275,21.84 C129.202503,22.1000013 129.819997,22.4099982 130.38,22.77 C130.940003,23.1300018 131.439998,23.5199979 131.88,23.94 L130.41,26.175 C130.269999,26.385001 130.102501,26.5499994 129.9075,26.67 C129.712499,26.7900006 129.500001,26.85 129.27,26.85 C128.969999,26.85 128.660002,26.750001 128.34,26.55 C127.939998,26.3099988 127.562502,26.1025009 127.2075,25.9275 C126.852498,25.7524991 126.490002,25.6100005 126.12,25.5 C125.749998,25.3899994 125.360002,25.3100002 124.95,25.26 C124.539998,25.2099997 124.080003,25.185 123.57,25.185 C122.619995,25.185 121.765004,25.3524983 121.005,25.6875 C120.244996,26.0225017 119.597503,26.4949969 119.0625,27.105 C118.527497,27.715003 118.115001,28.4474957 117.825,29.3025 C117.534999,30.1575043 117.39,31.1099947 117.39,32.16 C117.39,33.3200058 117.549998,34.3499955 117.87,35.25 C118.190002,36.1500045 118.632497,36.9099969 119.1975,37.53 C119.762503,38.1500031 120.432496,38.6224984 121.2075,38.9475 C121.982504,39.2725016 122.829995,39.435 123.75,39.435 Z M149.19,34.785 L149.19,43.095 L144.12,43.095 L144.12,34.785 L136.2,21.24 L140.67,21.24 C141.110002,21.24 141.459999,21.342499 141.72,21.5475 C141.980001,21.752501 142.189999,22.0149984 142.35,22.335 L145.44,28.695 C145.690001,29.2050025 145.919999,29.6749978 146.13,30.105 C146.340001,30.5350021 146.524999,30.9599979 146.685,31.38 C146.835001,30.9499978 147.014999,30.5200021 147.225,30.09 C147.435001,29.6599978 147.659999,29.1950025 147.9,28.695 L150.96,22.335 C151.02,22.2049993 151.102499,22.0750006 151.2075,21.945 C151.312501,21.8149993 151.432499,21.6975005 151.5675,21.5925 C151.702501,21.4874995 151.857499,21.4025003 152.0325,21.3375 C152.207501,21.2724997 152.399999,21.24 152.61,21.24 L157.11,21.24 L149.19,34.785 Z" id="DAWGY"></path>
            </g>
        </g>
    </g>
</svg>