<?xml version="1.0" encoding="UTF-8"?>
<svg width="35px" height="18px" viewBox="0 0 35 18" version="1.1" xmlns="http://www.w3.org/2000/svg" xmlns:xlink="http://www.w3.org/1999/xlink">
    <!-- Generator: Sketch 55.2 (78181) - https://sketchapp.com -->
    <title>explore</title>
    <desc>Created with Sketch.</desc>
    <g id="Welcome" stroke="none" stroke-width="1" fill="none" fill-rule="evenodd">
        <g id="Desktop-Copy" transform="translate(-31.000000, -90.000000)" fill="#FFFFFF">
            <path d="M50.0134953,100.573079 C50.7328857,103.718972 53.563692,106.067114 56.9462253,106.067114 C60.8524169,106.067114 64.02283,102.935651 64.0554676,99.0604027 L66,99.0604027 C65.9673189,104.003166 61.9263266,108 56.9462253,108 C53.098136,108 49.8107459,105.613672 48.5,102.248521 C47.1892541,105.613672 43.901864,108 40.0537747,108 C35.0736734,108 31.0326811,104.003166 31,99.0604027 L32.9445324,99.0604027 C32.97717,102.935651 36.1475831,106.067114 40.0537747,106.067114 C43.5308631,106.067114 46.4249475,103.585858 47.0418502,100.307423 C44.7577257,98.2978611 41.6084539,93.6664238 42.8096647,91.7214765 C44.2272567,89.4261745 53.1804689,89.4261745 54.5980609,91.7214765 C55.7482116,93.5837495 52.2768467,98.7064693 50.0134953,100.57308 L50.0134953,100.573079 Z" id="explore"></path>
        </g>
    </g>
</svg>