<?xml version="1.0" encoding="UTF-8"?>
<svg width="72px" height="72px" viewBox="0 0 72 72" version="1.1" xmlns="http://www.w3.org/2000/svg" xmlns:xlink="http://www.w3.org/1999/xlink">
    <!-- Generator: Sketch 55.2 (78181) - https://sketchapp.com -->
    <title>like</title>
    <desc>Created with Sketch.</desc>
    <g id="Welcome" stroke="none" stroke-width="1" fill="none" fill-rule="evenodd">
        <g id="Desktop-Copy-2" transform="translate(-779.000000, -564.000000)">
            <g id="like" transform="translate(779.000000, 564.000000)">
                <circle id="Oval-Copy-9" fill="#68D596" cx="36" cy="36" r="36"></circle>
                <circle id="Oval-Copy-8" fill="#FFFFFF" cx="36.5" cy="35.5" r="27.5"></circle>
                <path d="M23.0012098,30.7777778 C23.0004044,30.7307424 23,30.6836031 23,30.6363636 C23,26.4189165 26.2235498,23 30.2,23 C33.3452312,23 36.0194292,25.1389595 37,28.1201879 C37.9805708,25.1389595 40.6547688,23 43.8,23 C47.7764502,23 51,26.4189165 51,30.6363636 C51,30.6836031 50.9995956,30.7307424 50.9987902,30.7777778 C51,41.6666667 37,51 37,51 C37,51 23,41.6666667 23,30.7777778 L23.0012098,30.7777778 Z" id="Path-Copy-3" fill="#68D596"></path>
            </g>
        </g>
    </g>
</svg>