<?xml version="1.0" encoding="UTF-8"?>
<svg width="35px" height="21px" viewBox="0 0 35 21" version="1.1" xmlns="http://www.w3.org/2000/svg" xmlns:xlink="http://www.w3.org/1999/xlink">
    <!-- Generator: Sketch 55.2 (78181) - https://sketchapp.com -->
    <title>matches</title>
    <desc>Created with Sketch.</desc>
    <g id="Welcome" stroke="none" stroke-width="1" fill="none" fill-rule="evenodd">
        <g id="Desktop-Copy" transform="translate(-31.000000, -174.000000)" fill="#FFFFFF">
            <path d="M50.0836555,187.792718 C50.9026829,190.796906 53.6648426,193.006711 56.9462253,193.006711 C60.8524169,193.006711 64.02283,189.875248 64.0554676,186 L66,186 C65.9673189,190.942763 61.9263266,194.939597 56.9462253,194.939597 C53.098136,194.939597 49.8107459,192.55327 48.5,189.188119 C47.1892541,192.55327 43.901864,194.939597 40.0537747,194.939597 C35.0736734,194.939597 31.0326811,190.942763 31,186 L32.9445324,186 C32.97717,189.875248 36.1475831,193.006711 40.0537747,193.006711 C43.3351532,193.006711 46.0973102,190.796912 46.9163414,187.792729 C44.715641,185.965517 41,182.272516 41,178.166667 L41.0006481,178.166667 C41.0002167,178.141469 41,178.116216 41,178.090909 C41,175.831562 42.7269017,174 44.8571429,174 C46.5420882,174 47.9746942,175.145871 48.5,176.742958 C49.0253058,175.145871 50.4579118,174 52.1428571,174 C54.2730983,174 56,175.831562 56,178.090909 C56,178.116216 55.9997833,178.141469 55.9993519,178.166667 C55.9998081,182.272508 52.2843176,185.965501 50.0836555,187.792718 L50.0836555,187.792718 Z" id="matches"></path>
        </g>
    </g>
</svg>